<svg width="20" height="20" viewBox="0 0 20 20" fill="none" xmlns="http://www.w3.org/2000/svg">
<path fill-rule="evenodd" clip-rule="evenodd" d="M14 13V14C14 14.553 13.553 15 13 15H6C5.425 15 5 14.516 5 14V7C5 6.448 5.448 6 6 6H7C8.03693 6 8.04053 7.5 7 7.5C6.82217 7.50502 6.64704 7.5 6.5 7.5V13.5H12.5C12.5 13.5 12.5 13.1778 12.5 13C12.5 12 14 12 14 13ZM10.25 5.75C10.25 5.33579 10.5858 5 11 5H15V9C15 9.41421 14.6642 9.75 14.25 9.75C13.8358 9.75 13.5 9.41421 13.5 9V7.56066L10.2803 10.7803C9.98744 11.0732 9.51256 11.0732 9.21967 10.7803C8.92678 10.4874 8.92678 10.0126 9.21967 9.71967L12.4393 6.5H11C10.5858 6.5 10.25 6.16421 10.25 5.75Z" fill="#393FD9"/>
</svg>
